<mxfile host="app.diagrams.net" agent="Mozilla/5.0 (Windows NT 10.0; Win64; x64) AppleWebKit/537.36 (KHTML, like Gecko) Chrome/138.0.0.0 Safari/537.36" version="28.0.7">
  <diagram id="IHH7DoLjSRD6y76i9zCS" name="ページ2">
    <mxGraphModel dx="1035" dy="874" grid="0" gridSize="10" guides="1" tooltips="1" connect="1" arrows="1" fold="1" page="0" pageScale="1" pageWidth="827" pageHeight="1169" math="0" shadow="0">
      <root>
        <mxCell id="0" />
        <mxCell id="1" parent="0" />
        <mxCell id="2bIKzLAizrfnIHSd7XrN-6" value="ProductService" style="swimlane;fontStyle=1;align=center;verticalAlign=top;childLayout=stackLayout;horizontal=1;startSize=26;horizontalStack=0;resizeParent=1;resizeParentMax=0;resizeLast=0;collapsible=1;marginBottom=0;whiteSpace=wrap;html=1;" parent="1" vertex="1">
          <mxGeometry x="-237" y="25" width="260" height="81" as="geometry" />
        </mxCell>
        <mxCell id="2bIKzLAizrfnIHSd7XrN-8" value="" style="line;strokeWidth=1;fillColor=none;align=left;verticalAlign=middle;spacingTop=-1;spacingLeft=3;spacingRight=3;rotatable=0;labelPosition=right;points=[];portConstraint=eastwest;strokeColor=inherit;" parent="2bIKzLAizrfnIHSd7XrN-6" vertex="1">
          <mxGeometry y="26" width="260" height="8" as="geometry" />
        </mxCell>
        <mxCell id="2bIKzLAizrfnIHSd7XrN-9" value="+getProductCategories():List&amp;lt;ProductCategory&amp;gt;&lt;div&gt;+addProduct(Product):void&lt;/div&gt;" style="text;strokeColor=none;fillColor=none;align=left;verticalAlign=top;spacingLeft=4;spacingRight=4;overflow=hidden;rotatable=0;points=[[0,0.5],[1,0.5]];portConstraint=eastwest;whiteSpace=wrap;html=1;" parent="2bIKzLAizrfnIHSd7XrN-6" vertex="1">
          <mxGeometry y="34" width="260" height="47" as="geometry" />
        </mxCell>
        <mxCell id="2bIKzLAizrfnIHSd7XrN-10" value="ProductCategoryRepository" style="swimlane;fontStyle=1;align=center;verticalAlign=top;childLayout=stackLayout;horizontal=1;startSize=26;horizontalStack=0;resizeParent=1;resizeParentMax=0;resizeLast=0;collapsible=1;marginBottom=0;whiteSpace=wrap;html=1;" parent="1" vertex="1">
          <mxGeometry x="-324" y="376" width="211" height="60" as="geometry" />
        </mxCell>
        <mxCell id="2bIKzLAizrfnIHSd7XrN-12" value="" style="line;strokeWidth=1;fillColor=none;align=left;verticalAlign=middle;spacingTop=-1;spacingLeft=3;spacingRight=3;rotatable=0;labelPosition=right;points=[];portConstraint=eastwest;strokeColor=inherit;" parent="2bIKzLAizrfnIHSd7XrN-10" vertex="1">
          <mxGeometry y="26" width="211" height="8" as="geometry" />
        </mxCell>
        <mxCell id="2bIKzLAizrfnIHSd7XrN-13" value="+selectAll():List&amp;lt;ProductCategory&amp;gt;" style="text;strokeColor=none;fillColor=none;align=left;verticalAlign=top;spacingLeft=4;spacingRight=4;overflow=hidden;rotatable=0;points=[[0,0.5],[1,0.5]];portConstraint=eastwest;whiteSpace=wrap;html=1;" parent="2bIKzLAizrfnIHSd7XrN-10" vertex="1">
          <mxGeometry y="34" width="211" height="26" as="geometry" />
        </mxCell>
        <mxCell id="Bigyv0jPBeiwcO5DcRfi-2" value="ProductController" style="swimlane;fontStyle=1;align=center;verticalAlign=top;childLayout=stackLayout;horizontal=1;startSize=26;horizontalStack=0;resizeParent=1;resizeParentMax=0;resizeLast=0;collapsible=1;marginBottom=0;whiteSpace=wrap;html=1;" parent="1" vertex="1">
          <mxGeometry x="-110" y="-198" width="240" height="167" as="geometry" />
        </mxCell>
        <mxCell id="Bigyv0jPBeiwcO5DcRfi-3" value="-productService:ProductService&lt;div&gt;+setupForm:ProductForm(ModelAttribute)&lt;/div&gt;" style="text;strokeColor=none;fillColor=none;align=left;verticalAlign=top;spacingLeft=4;spacingRight=4;overflow=hidden;rotatable=0;points=[[0,0.5],[1,0.5]];portConstraint=eastwest;whiteSpace=wrap;html=1;" parent="Bigyv0jPBeiwcO5DcRfi-2" vertex="1">
          <mxGeometry y="26" width="240" height="54" as="geometry" />
        </mxCell>
        <mxCell id="Bigyv0jPBeiwcO5DcRfi-4" value="" style="line;strokeWidth=1;fillColor=none;align=left;verticalAlign=middle;spacingTop=-1;spacingLeft=3;spacingRight=3;rotatable=0;labelPosition=right;points=[];portConstraint=eastwest;strokeColor=inherit;" parent="Bigyv0jPBeiwcO5DcRfi-2" vertex="1">
          <mxGeometry y="80" width="240" height="8" as="geometry" />
        </mxCell>
        <mxCell id="Bigyv0jPBeiwcO5DcRfi-5" value="+form():String&lt;div&gt;+confirm():String&lt;/div&gt;&lt;div&gt;+execute():String&lt;/div&gt;&lt;div&gt;+complete():String&lt;/div&gt;" style="text;strokeColor=none;fillColor=none;align=left;verticalAlign=top;spacingLeft=4;spacingRight=4;overflow=hidden;rotatable=0;points=[[0,0.5],[1,0.5]];portConstraint=eastwest;whiteSpace=wrap;html=1;" parent="Bigyv0jPBeiwcO5DcRfi-2" vertex="1">
          <mxGeometry y="88" width="240" height="79" as="geometry" />
        </mxCell>
        <mxCell id="PaT3p4GUxZufcXp5Guyy-1" value="ProductRepository" style="swimlane;fontStyle=1;align=center;verticalAlign=top;childLayout=stackLayout;horizontal=1;startSize=26;horizontalStack=0;resizeParent=1;resizeParentMax=0;resizeLast=0;collapsible=1;marginBottom=0;whiteSpace=wrap;html=1;" parent="1" vertex="1">
          <mxGeometry x="-49" y="376" width="160" height="60" as="geometry" />
        </mxCell>
        <mxCell id="PaT3p4GUxZufcXp5Guyy-3" value="" style="line;strokeWidth=1;fillColor=none;align=left;verticalAlign=middle;spacingTop=-1;spacingLeft=3;spacingRight=3;rotatable=0;labelPosition=right;points=[];portConstraint=eastwest;strokeColor=inherit;" parent="PaT3p4GUxZufcXp5Guyy-1" vertex="1">
          <mxGeometry y="26" width="160" height="8" as="geometry" />
        </mxCell>
        <mxCell id="PaT3p4GUxZufcXp5Guyy-4" value="+insert(Product)" style="text;strokeColor=none;fillColor=none;align=left;verticalAlign=top;spacingLeft=4;spacingRight=4;overflow=hidden;rotatable=0;points=[[0,0.5],[1,0.5]];portConstraint=eastwest;whiteSpace=wrap;html=1;" parent="PaT3p4GUxZufcXp5Guyy-1" vertex="1">
          <mxGeometry y="34" width="160" height="26" as="geometry" />
        </mxCell>
        <mxCell id="qGJRi6ImAgN1nrrDG2NS-1" value="ProductForm" style="swimlane;fontStyle=1;align=center;verticalAlign=top;childLayout=stackLayout;horizontal=1;startSize=26;horizontalStack=0;resizeParent=1;resizeParentMax=0;resizeLast=0;collapsible=1;marginBottom=0;whiteSpace=wrap;html=1;" parent="1" vertex="1">
          <mxGeometry x="99" y="25" width="178" height="185" as="geometry" />
        </mxCell>
        <mxCell id="qGJRi6ImAgN1nrrDG2NS-2" value="-id:Integer&lt;div&gt;-name:String&lt;/div&gt;&lt;div&gt;-price:Integer&lt;/div&gt;&lt;div&gt;-image_url:String&lt;/div&gt;&lt;div&gt;-product_category_id:Integer&lt;/div&gt;&lt;div&gt;-delete_flag:Integer&lt;/div&gt;" style="text;strokeColor=none;fillColor=none;align=left;verticalAlign=top;spacingLeft=4;spacingRight=4;overflow=hidden;rotatable=0;points=[[0,0.5],[1,0.5]];portConstraint=eastwest;whiteSpace=wrap;html=1;" parent="qGJRi6ImAgN1nrrDG2NS-1" vertex="1">
          <mxGeometry y="26" width="178" height="90" as="geometry" />
        </mxCell>
        <mxCell id="qGJRi6ImAgN1nrrDG2NS-3" value="" style="line;strokeWidth=1;fillColor=none;align=left;verticalAlign=middle;spacingTop=-1;spacingLeft=3;spacingRight=3;rotatable=0;labelPosition=right;points=[];portConstraint=eastwest;strokeColor=inherit;" parent="qGJRi6ImAgN1nrrDG2NS-1" vertex="1">
          <mxGeometry y="116" width="178" height="69" as="geometry" />
        </mxCell>
        <mxCell id="TUEowYZ_MP7emDaOJ2Zx-1" value="ProductServiceImpl" style="swimlane;fontStyle=1;align=center;verticalAlign=top;childLayout=stackLayout;horizontal=1;startSize=26;horizontalStack=0;resizeParent=1;resizeParentMax=0;resizeLast=0;collapsible=1;marginBottom=0;whiteSpace=wrap;html=1;" parent="1" vertex="1">
          <mxGeometry x="-256" y="177" width="318" height="123" as="geometry" />
        </mxCell>
        <mxCell id="TUEowYZ_MP7emDaOJ2Zx-2" value="+productRepository:ProductRepository&lt;div&gt;+productcategoryRepository:ProductCategoryRepository&lt;/div&gt;" style="text;strokeColor=none;fillColor=none;align=left;verticalAlign=top;spacingLeft=4;spacingRight=4;overflow=hidden;rotatable=0;points=[[0,0.5],[1,0.5]];portConstraint=eastwest;whiteSpace=wrap;html=1;" parent="TUEowYZ_MP7emDaOJ2Zx-1" vertex="1">
          <mxGeometry y="26" width="318" height="37" as="geometry" />
        </mxCell>
        <mxCell id="TUEowYZ_MP7emDaOJ2Zx-3" value="" style="line;strokeWidth=1;fillColor=none;align=left;verticalAlign=middle;spacingTop=-1;spacingLeft=3;spacingRight=3;rotatable=0;labelPosition=right;points=[];portConstraint=eastwest;strokeColor=inherit;" parent="TUEowYZ_MP7emDaOJ2Zx-1" vertex="1">
          <mxGeometry y="63" width="318" height="8" as="geometry" />
        </mxCell>
        <mxCell id="TUEowYZ_MP7emDaOJ2Zx-4" value="+getProductCategories():List&amp;lt;ProductCategory&amp;gt;&lt;div&gt;+addProduct(Product):void&lt;/div&gt;" style="text;strokeColor=none;fillColor=none;align=left;verticalAlign=top;spacingLeft=4;spacingRight=4;overflow=hidden;rotatable=0;points=[[0,0.5],[1,0.5]];portConstraint=eastwest;whiteSpace=wrap;html=1;" parent="TUEowYZ_MP7emDaOJ2Zx-1" vertex="1">
          <mxGeometry y="71" width="318" height="52" as="geometry" />
        </mxCell>
        <mxCell id="0UZdkklDXkRtaW1Xbkx6-3" value="" style="endArrow=classic;html=1;rounded=0;" edge="1" parent="1" source="Bigyv0jPBeiwcO5DcRfi-5">
          <mxGeometry width="50" height="50" relative="1" as="geometry">
            <mxPoint x="368" y="-75" as="sourcePoint" />
            <mxPoint x="-121" y="19" as="targetPoint" />
          </mxGeometry>
        </mxCell>
        <mxCell id="0UZdkklDXkRtaW1Xbkx6-4" value="" style="endArrow=classic;html=1;rounded=0;entryX=0.25;entryY=0;entryDx=0;entryDy=0;exitX=0.864;exitY=1.043;exitDx=0;exitDy=0;exitPerimeter=0;" edge="1" parent="1" source="Bigyv0jPBeiwcO5DcRfi-5" target="qGJRi6ImAgN1nrrDG2NS-1">
          <mxGeometry width="50" height="50" relative="1" as="geometry">
            <mxPoint x="113" y="-122" as="sourcePoint" />
            <mxPoint x="280" y="-4" as="targetPoint" />
          </mxGeometry>
        </mxCell>
        <mxCell id="0UZdkklDXkRtaW1Xbkx6-6" value="" style="endArrow=classic;html=1;rounded=0;exitX=0.373;exitY=1.032;exitDx=0;exitDy=0;exitPerimeter=0;" edge="1" parent="1" source="TUEowYZ_MP7emDaOJ2Zx-4">
          <mxGeometry width="50" height="50" relative="1" as="geometry">
            <mxPoint x="-125" y="279" as="sourcePoint" />
            <mxPoint x="-218" y="374" as="targetPoint" />
          </mxGeometry>
        </mxCell>
        <mxCell id="0UZdkklDXkRtaW1Xbkx6-7" value="" style="endArrow=classic;html=1;rounded=0;entryX=0.587;entryY=0.011;entryDx=0;entryDy=0;entryPerimeter=0;" edge="1" parent="1" target="PaT3p4GUxZufcXp5Guyy-1">
          <mxGeometry width="50" height="50" relative="1" as="geometry">
            <mxPoint x="-70" y="303" as="sourcePoint" />
            <mxPoint x="-38" y="281" as="targetPoint" />
          </mxGeometry>
        </mxCell>
        <mxCell id="0UZdkklDXkRtaW1Xbkx6-9" value="" style="endArrow=block;dashed=1;endFill=0;endSize=12;html=1;rounded=0;entryX=0.539;entryY=1.013;entryDx=0;entryDy=0;entryPerimeter=0;exitX=0.5;exitY=0;exitDx=0;exitDy=0;" edge="1" parent="1" source="TUEowYZ_MP7emDaOJ2Zx-1" target="2bIKzLAizrfnIHSd7XrN-9">
          <mxGeometry width="160" relative="1" as="geometry">
            <mxPoint x="-100" y="141" as="sourcePoint" />
            <mxPoint x="-35" y="7" as="targetPoint" />
          </mxGeometry>
        </mxCell>
      </root>
    </mxGraphModel>
  </diagram>
</mxfile>
